<svg width="36" height="36" fill="none" xmlns="http://www.w3.org/2000/svg"><path d="M18 0C8.06 0 0 8.06 0 18s8.06 18 18 18 18-8.06 18-18S27.94 0 18 0zm9 28.125C16.454 28.125 7.875 19.545 7.875 9c0-.621.504-1.125 1.125-1.125h4.153c.621 0 1.125.504 1.125 1.125 0 1.944.423 3.796 1.258 5.501.133.27.151.579.052.862a1.12 1.12 0 01-.574.646l-1.678.81a15.81 15.81 0 005.843 5.843l.81-1.676a1.127 1.127 0 011.508-.522 12.422 12.422 0 005.5 1.258c.622 0 1.126.503 1.126 1.124V27h.002c0 .621-.504 1.125-1.125 1.125z" fill="#FCC24C"/></svg>