<svg width="14" height="16" fill="none" xmlns="http://www.w3.org/2000/svg"><path d="M11.743 1.965A6.664 6.664 0 007 0a6.664 6.664 0 00-4.743 1.965A6.664 6.664 0 00.292 6.708c0 1.792.698 3.476 1.965 4.743l4.412 4.412a.467.467 0 00.662 0l4.412-4.412a6.664 6.664 0 001.965-4.743 6.664 6.664 0 00-1.965-4.743zm-2.636 6.85A2.96 2.96 0 017 9.686a2.96 2.96 0 01-2.107-.873 2.96 2.96 0 01-.872-2.106c0-.796.31-1.544.872-2.107A2.96 2.96 0 017 3.73c.796 0 1.544.31 2.107.872a2.96 2.96 0 01.872 2.107 2.96 2.96 0 01-.872 2.106z" fill="#fff"/></svg>