<svg width="72" height="72" fill="none" xmlns="http://www.w3.org/2000/svg"><path d="M6.12 65.04l-4.373-4.37a2.608 2.608 0 01.145-3.82l30.487-26.18 11.57 1.262a5.212 5.212 0 004.251-1.496l17.633-17.633a1.955 1.955 0 012.764 0l1.843 1.843a1.955 1.955 0 010 2.764L52.37 35.484a10.425 10.425 0 01-8.502 2.991l-9.086-.99L9.894 64.947a2.606 2.606 0 01-3.775.093z" fill="#FCC24C"/><path d="M64.997 13.64l-5.732 5.732-3.645 3.651-1.395 1.39-4.343 4.342L43.1 21.97a2.25 2.25 0 010-3.178l2.756-2.75 1.39-1.396 3.65-3.645 1.39-1.395 2.75-2.75a2.245 2.245 0 013.184 0l6.778 6.784z" fill="#fff"/><path d="M50.888 11.006l1.39-1.39 8.37 8.37-1.39 1.39-8.37-8.37zm4.732 12.017l-1.395 1.39-8.37-8.37 1.39-1.395 8.376 8.375z" fill="#C5C9F7"/><path d="M5.273 53.946l3.778 3.777 15.146-15.146-2.626-2.626L5.273 53.946z" fill="#fff"/></svg>