<svg width="32" height="32" fill="none" xmlns="http://www.w3.org/2000/svg"><path d="M17.778 14.86l-2.2-.488c-.837-.19-1.8-.443-1.8-1.232 0-.79.675-1.343 1.895-1.343 2.459 0 2.234 1.69 3.455 1.69.642 0 1.204-.378 1.204-1.027 0-1.516-2.425-2.653-4.482-2.653-2.234 0-4.612.948-4.612 3.474 0 1.217.434 2.511 2.828 3.112l2.973.742c.9.221 1.125.727 1.125 1.184 0 .76-.754 1.501-2.12 1.501-2.67 0-2.299-2.054-3.73-2.054-.642 0-1.108.443-1.108 1.075 0 1.231 1.495 2.874 4.838 2.874 3.18 0 4.755-1.532 4.755-3.585 0-1.326-.611-2.733-3.021-3.27z" fill="#F2C94C"/><path d="M16 0C7.165 0 0 7.165 0 16s7.165 16 16 16 16-7.165 16-16S24.835 0 16 0zm8.33 24.307a5.529 5.529 0 01-3.937 1.63c-.963 0-1.907-.25-2.74-.721a9.46 9.46 0 01-1.647.146 9.34 9.34 0 01-3.662-.74 9.356 9.356 0 01-2.991-2.016 9.366 9.366 0 01-2.016-2.99 9.34 9.34 0 01-.74-3.662c0-.544.05-1.089.142-1.622a5.563 5.563 0 01.93-6.638 5.532 5.532 0 013.939-1.631c.911 0 1.811.227 2.612.652h.004a9.488 9.488 0 011.782-.169 9.375 9.375 0 016.651 2.755 9.367 9.367 0 012.756 6.653c0 .572-.054 1.145-.157 1.705a5.568 5.568 0 01-.926 6.648z" fill="#F2C94C"/></svg>