<svg width="13" height="13" viewBox="0 0 13 13" fill="none" xmlns="http://www.w3.org/2000/svg">
<path fill-rule="evenodd" clip-rule="evenodd" d="M1.90311 1.90451C4.44113 -0.634299 8.55673 -0.634908 11.0955 1.90311C12.3146 3.12181 12.9997 4.77484 13 6.49861C13.0004 8.22266 12.3158 9.87623 11.0969 11.0955C8.55888 13.6343 4.44332 13.6349 1.90451 11.0969C-0.634299 8.55888 -0.634908 4.44332 1.90311 1.90451ZM9.84317 9.0553L9.84403 9.05443C9.95126 8.94673 9.95088 8.77252 9.84314 8.66532L8.6233 7.44332L8.62244 7.44246C8.51476 7.33523 8.34053 7.33562 8.2333 7.44332L7.54214 8.14532C7.34079 8.3453 7.02524 8.37267 6.79248 8.21032C6.38966 7.92864 6.01264 7.61179 5.66583 7.26348C5.35477 6.95351 5.06859 6.61955 4.80998 6.26464C4.63969 6.03168 4.66549 5.70922 4.87064 5.5063L5.58564 4.7913L5.58651 4.79043C5.69373 4.68275 5.69335 4.50852 5.58564 4.4013L4.36798 3.18364L4.36712 3.18278C4.25944 3.07555 4.08521 3.07593 3.97798 3.18364L3.59233 3.5693C3.1243 4.02968 2.95654 4.71495 3.15898 5.33945C3.33558 5.87106 3.58494 6.37562 3.89998 6.8388C4.18802 7.26924 4.51825 7.66991 4.88583 8.0348C5.28532 8.43673 5.72783 8.79347 6.20533 9.09864C6.71928 9.43621 7.28397 9.6893 7.87798 9.8483C8.46758 9.98906 9.0879 9.81161 9.51383 9.3803L9.84317 9.05314V9.0553Z" fill="#4B42E3"/>
</svg>
