<svg width="33" height="33" viewBox="0 0 33 33" fill="none" xmlns="http://www.w3.org/2000/svg">
<path fill-rule="evenodd" clip-rule="evenodd" d="M16.5 33C25.6127 33 33 25.6127 33 16.5C33 7.3873 25.6127 0 16.5 0C7.3873 0 0 7.3873 0 16.5C0 25.6127 7.3873 33 16.5 33Z" fill="#171921"/>
<path d="M19.5607 9.00302L17.6792 9C15.5654 9 14.1993 10.4015 14.1993 12.5707V14.2171H12.3076C12.1441 14.2171 12.0117 14.3496 12.0117 14.5131V16.8984C12.0117 17.0619 12.1442 17.1943 12.3076 17.1943H14.1993V23.2133C14.1993 23.3768 14.3317 23.5091 14.4952 23.5091H16.9634C17.1269 23.5091 17.2593 23.3766 17.2593 23.2133V17.1943H19.4712C19.6347 17.1943 19.767 17.0619 19.767 16.8984L19.7679 14.5131C19.7679 14.4346 19.7367 14.3594 19.6813 14.3038C19.6259 14.2483 19.5504 14.2171 19.4719 14.2171H17.2593V12.8214C17.2593 12.1506 17.4191 11.8101 18.2929 11.8101L19.5604 11.8097C19.7237 11.8097 19.8561 11.6771 19.8561 11.5138V9.29887C19.8561 9.1357 19.7239 9.00332 19.5607 9.00302Z" fill="white"/>
</svg>
