<svg width="33" height="33" viewBox="0 0 33 33" fill="none" xmlns="http://www.w3.org/2000/svg">
<path fill-rule="evenodd" clip-rule="evenodd" d="M16.5 33C25.6127 33 33 25.6127 33 16.5C33 7.3873 25.6127 0 16.5 0C7.3873 0 0 7.3873 0 16.5C0 25.6127 7.3873 33 16.5 33Z" fill="#171921"/>
<path fill-rule="evenodd" clip-rule="evenodd" d="M13.4131 9.0476C14.7944 8.98635 18.2125 8.98323 19.5925 9.0476C22.4156 9.1776 23.8288 10.7745 23.9525 13.4076C24.0138 14.7889 24.0175 18.2064 23.9525 19.587C23.85 21.8176 22.8013 23.0595 21.4119 23.5989C20.3948 23.9926 19.4019 23.9926 16.5432 23.9926H16.5025C16.2011 23.9926 15.9094 23.9948 15.627 23.9969H15.627C13.2697 24.0144 11.5588 24.0271 10.2656 22.7345C8.98163 21.4505 8.99091 19.7758 9.00456 17.3115C9.00602 17.0493 9.00752 16.7781 9.00752 16.4976C9.00752 16.1979 9.00548 15.9081 9.00351 15.628C8.98673 13.2437 8.97483 11.5515 10.2656 10.2607C11.1288 9.3976 12.1994 9.10448 13.4131 9.0476ZM17.1725 22.6424C19.7245 22.6483 20.906 22.651 21.7769 21.7801C22.6521 20.9008 22.651 19.7315 22.6484 17.0185V17.0182V17.018C22.6483 16.8503 22.6481 16.6767 22.6481 16.497C22.6481 14.4957 22.64 14.2582 22.6044 13.4676C22.461 10.2995 20.2642 10.3196 17.343 10.3463C17.0693 10.3488 16.7892 10.3514 16.5038 10.3514L16.4756 10.3326C14.5017 10.3326 14.2444 10.3417 13.4765 10.3688H13.4765L13.4406 10.3701C10.2775 10.5321 10.2966 12.618 10.3241 15.6065C10.3267 15.8922 10.3294 16.1862 10.3294 16.4876C10.3294 16.843 10.3257 17.1815 10.3222 17.5038C10.3004 19.496 10.2854 20.8686 11.1919 21.7707C12.0632 22.6444 13.2421 22.6436 16.0551 22.6416L16.4844 22.6414C16.7243 22.6414 16.9535 22.6419 17.1725 22.6424ZM12.6538 16.4976C12.6538 14.3726 14.3756 12.6489 16.5025 12.6489C18.6275 12.6489 20.3513 14.3707 20.3513 16.4976C20.3513 18.6226 18.6294 20.3464 16.5025 20.3464C14.3775 20.3464 12.6538 18.6245 12.6538 16.4976ZM14.0044 16.4976C14.0044 17.8776 15.1219 18.9957 16.5025 18.9957C17.8831 18.9957 19.0013 17.8776 19.0006 16.4976C19.0006 15.1176 17.8825 13.9995 16.5025 13.9995C15.1225 13.9995 14.0044 15.1176 14.0044 16.4976ZM21.4031 12.497C21.4031 12.9937 21.0005 13.3964 20.5038 13.3964C20.0071 13.3964 19.6044 12.9937 19.6044 12.497C19.6044 12.0003 20.0071 11.5976 20.5038 11.5976C21.0005 11.5976 21.4031 12.0003 21.4031 12.497Z" fill="white"/>
</svg>
