<svg width="33" height="33" viewBox="0 0 33 33" fill="none" xmlns="http://www.w3.org/2000/svg">
<path fill-rule="evenodd" clip-rule="evenodd" d="M16.5 33C25.6127 33 33 25.6127 33 16.5C33 7.3873 25.6127 0 16.5 0C7.3873 0 0 7.3873 0 16.5C0 25.6127 7.3873 33 16.5 33Z" fill="#171921"/>
<path d="M14.9123 22.9704C14.227 22.9704 13.5216 22.9149 12.812 22.8036C11.5622 22.6075 10.297 21.9538 9.93897 21.758L9 21.2446L10.0166 20.9103C11.1279 20.545 11.8039 20.3182 12.6407 19.9633C11.8028 19.5575 11.157 18.8276 10.8461 17.884L10.6096 17.1661L10.8036 17.1957C10.6197 17.0103 10.4745 16.8222 10.3619 16.6511C9.96158 16.0431 9.74963 15.3001 9.79473 14.6634L9.83922 14.0367L10.2144 14.1821C10.0561 13.8832 9.94175 13.564 9.87453 13.2294C9.7107 12.4135 9.84781 11.5468 10.2607 10.7888L10.5875 10.1888L11.0246 10.7138C12.4069 12.3744 14.1578 13.3594 16.2358 13.6478C16.151 13.0627 16.2146 12.4981 16.4251 11.9919C16.6701 11.4026 17.1061 10.9029 17.6855 10.5467C18.329 10.1512 19.1093 9.9596 19.8828 10.0071C20.7034 10.0575 21.4484 10.365 22.0401 10.8969C22.3291 10.8218 22.542 10.7416 22.8298 10.6333C23.0029 10.5681 23.1993 10.4941 23.445 10.4095L24.3503 10.0976L23.7599 11.7837C23.7989 11.7805 23.839 11.7777 23.881 11.7759L24.8477 11.7321L24.2763 12.513C24.2436 12.5578 24.2352 12.5705 24.2236 12.588C24.1775 12.6574 24.1202 12.7437 23.3359 13.791C23.1396 14.0533 23.0415 14.3949 23.0598 14.753C23.1293 16.1139 22.9623 17.3452 22.5632 18.4126C22.1857 19.4224 21.6008 20.2889 20.8248 20.9878C19.8645 21.8526 18.6401 22.4447 17.1853 22.7474C16.4717 22.8959 15.7054 22.9704 14.9123 22.9704Z" fill="white"/>
</svg>
