<svg width="33" height="33" viewBox="0 0 33 33" fill="none" xmlns="http://www.w3.org/2000/svg">
<path fill-rule="evenodd" clip-rule="evenodd" d="M16.5 33C25.6127 33 33 25.6127 33 16.5C33 7.3873 25.6127 0 16.5 0C7.3873 0 0 7.3873 0 16.5C0 25.6127 7.3873 33 16.5 33Z" fill="#171921"/>
<path fill-rule="evenodd" clip-rule="evenodd" d="M10.4902 10H22.5098C23.8828 10 25 11.1216 25 12.5V20.5C25 21.8784 23.8828 23 22.5098 23H10.4902C9.11723 23 8 21.8784 8 20.5V12.5C8 11.1216 9.11723 10 10.4902 10ZM14.6111 14V19L19.3333 16.4587L14.6111 14Z" fill="white"/>
</svg>
