<svg width="36" height="36" viewBox="0 0 36 36" fill="none" xmlns="http://www.w3.org/2000/svg">
<path d="M18 0C8.0595 0 0 8.0595 0 18C0 27.9405 8.0595 36 18 36C27.9405 36 36 27.9405 36 18C36 8.0595 27.9405 0 18 0ZM27 28.125C16.4543 28.125 7.875 19.5457 7.875 9C7.875 8.379 8.379 7.875 9 7.875H13.1535C13.7745 7.875 14.2785 8.379 14.2785 9C14.2785 10.944 14.7015 12.7958 15.5363 14.5013C15.669 14.7713 15.687 15.0795 15.588 15.363C15.4913 15.6465 15.2842 15.8782 15.0142 16.0087L13.3358 16.8188C14.733 19.251 16.749 21.2692 19.179 22.662L19.989 20.9857C20.1195 20.7157 20.3512 20.511 20.6347 20.412C20.9182 20.3152 21.2288 20.3333 21.4965 20.4638C23.2065 21.2985 25.056 21.7215 26.9977 21.7215C27.6187 21.7215 28.1227 22.2255 28.1227 22.8465V27H28.125C28.125 27.621 27.621 28.125 27 28.125Z" fill="#FCC24C"/>
</svg>
