<svg width="14" height="16" viewBox="0 0 14 16" fill="none" xmlns="http://www.w3.org/2000/svg">
<path d="M11.7432 1.96473C10.4762 0.697753 8.79165 0 6.99996 0C5.20823 0 3.52372 0.697721 2.25669 1.96473C0.989745 3.23167 0.291992 4.91611 0.291992 6.70784C0.291992 8.49956 0.989745 10.1841 2.25669 11.451L6.66852 15.8627C6.76005 15.9543 6.88002 16 6.99996 16C7.11993 16 7.23989 15.9542 7.33139 15.8627L11.7431 11.4511C13.01 10.1841 13.7078 8.4996 13.7078 6.70787C13.7078 4.91608 13.0101 3.23164 11.7432 1.96473ZM9.10659 8.81441C8.5439 9.3771 7.79577 9.68701 6.99999 9.68701C6.2042 9.68701 5.45607 9.37713 4.89342 8.81444C4.3307 8.25175 4.02082 7.50362 4.02082 6.70784C4.02082 5.91209 4.3307 5.16396 4.89342 4.60124C5.45607 4.03855 6.2042 3.72867 6.99999 3.72867C7.79577 3.72867 8.5439 4.03855 9.10659 4.60124C9.66928 5.1639 9.97919 5.91202 9.97919 6.70781C9.97916 7.50359 9.66925 8.25175 9.10659 8.81441Z" fill="white"/>
</svg>
