<svg width="72" height="72" viewBox="0 0 72 72" fill="none" xmlns="http://www.w3.org/2000/svg">
<path d="M6.11941 65.0407L1.74766 60.669C1.49389 60.4151 1.29527 60.1116 1.16425 59.7775C1.03323 59.4433 0.972629 59.0857 0.986254 58.727C0.999878 58.3684 1.08743 58.0164 1.24342 57.6931C1.39941 57.3699 1.62049 57.0823 1.89279 56.8485L32.3803 30.6686L43.9504 31.9308C44.7257 32.0153 45.5101 31.9247 46.2458 31.6657C46.9815 31.4068 47.6497 30.9861 48.2012 30.4346L65.8344 12.8019C66.201 12.4354 66.6981 12.2295 67.2165 12.2295C67.7348 12.2295 68.232 12.4354 68.5985 12.8019L70.4413 14.6446C70.8078 15.0113 71.0137 15.5085 71.0137 16.027C71.0137 16.5454 70.8078 17.0427 70.4413 17.4093L52.3687 35.4836C51.2656 36.5865 49.9291 37.4278 48.4576 37.9455C46.9861 38.4633 45.4172 38.6442 43.8665 38.475L34.7805 37.4844L9.89379 64.9479C9.65669 65.2095 9.36892 65.4202 9.04793 65.5672C8.72695 65.7142 8.37944 65.7945 8.02649 65.8032C7.67354 65.8119 7.32251 65.7488 6.99468 65.6177C6.66686 65.4866 6.36908 65.2903 6.11941 65.0407Z" fill="#FCC24C"/>
<path d="M64.9966 13.6406L59.2647 19.3724L55.6197 23.0231L54.2247 24.4124L49.8822 28.7549L43.0985 21.9712C42.6777 21.5494 42.4414 20.9779 42.4414 20.3821C42.4414 19.7863 42.6777 19.2149 43.0985 18.7931L45.8547 16.0424L47.2441 14.6474L50.8947 11.0024L52.2841 9.60744L55.0347 6.85682C55.2433 6.64695 55.4913 6.4804 55.7645 6.36674C56.0377 6.25309 56.3307 6.19458 56.6266 6.19458C56.9225 6.19458 57.2155 6.25309 57.4887 6.36674C57.7619 6.4804 58.0099 6.64695 58.2185 6.85682L64.9966 13.6406Z" fill="white"/>
<path d="M50.8877 11.0061L52.2784 9.61539L60.6485 17.9855L59.2578 19.3762L50.8877 11.0061Z" fill="#C5C9F7"/>
<path d="M55.6205 23.0231L54.2255 24.4125L45.8555 16.0425L47.2448 14.6475L55.6205 23.0231Z" fill="#C5C9F7"/>
<path d="M5.27344 53.9459L9.05063 57.723L24.1965 42.5772L21.5713 39.9514L5.27344 53.9459Z" fill="white"/>
</svg>
