<svg width="32" height="12" viewBox="0 0 32 12" fill="none" xmlns="http://www.w3.org/2000/svg">
<path d="M31.725 4.9793L31.7242 4.97848L26.8256 0.444454C26.4586 0.104795 25.865 0.106059 25.4997 0.447418C25.1344 0.788734 25.1359 1.34079 25.5028 1.6805L28.7918 4.72457H0.9375C0.419719 4.72457 0 5.11493 0 5.5965C0 6.07806 0.419719 6.46842 0.9375 6.46842H28.7917L25.5029 9.5125C25.1359 9.8522 25.1345 10.4043 25.4997 10.7456C25.865 11.087 26.4587 11.0882 26.8256 10.7485L31.7242 6.21452L31.7251 6.21369C32.0922 5.87285 32.0911 5.31901 31.725 4.9793Z" fill="#A8A8A8"/>
</svg>
