<svg width="32" height="32" viewBox="0 0 32 32" fill="none" xmlns="http://www.w3.org/2000/svg">
<path d="M17.7776 14.8601L15.5774 14.3718C14.7405 14.1812 13.7771 13.9292 13.7771 13.1401C13.7771 12.3494 14.4529 11.7969 15.6729 11.7969C18.1316 11.7969 17.907 13.4866 19.1277 13.4866C19.77 13.4866 20.3323 13.1089 20.3323 12.4595C20.3323 10.9441 17.907 9.80688 15.8496 9.80688C13.6162 9.80688 11.2378 10.7554 11.2378 13.2815C11.2378 14.498 11.6724 15.7922 14.0664 16.3926L17.0391 17.1348C17.9387 17.3564 18.1638 17.8625 18.1638 18.3191C18.1638 19.0784 17.4097 19.8201 16.0435 19.8201C13.3748 19.8201 13.7451 17.7664 12.3149 17.7664C11.6724 17.7664 11.2061 18.209 11.2061 18.8406C11.2061 20.072 12.7012 21.7153 16.0435 21.7153C19.2234 21.7153 20.7991 20.1826 20.7991 18.1299C20.7991 16.8044 20.188 15.3972 17.7776 14.8601Z" fill="#F2C94C"/>
<path d="M16 0C7.16479 0 0 7.16479 0 16C0 24.8352 7.16479 32 16 32C24.8352 32 32 24.8352 32 16C32 7.16479 24.8352 0 16 0ZM24.3303 24.3066C23.2783 25.3591 21.8804 25.9375 20.3931 25.9375C19.4297 25.9375 18.4863 25.687 17.6531 25.2156C17.1123 25.3115 16.5583 25.3621 16.0056 25.3621C14.7356 25.3621 13.5032 25.113 12.3438 24.6216C11.2227 24.1489 10.217 23.47 9.35254 22.606C8.48901 21.7422 7.81079 20.7366 7.3374 19.616C6.84619 18.4558 6.59766 17.2241 6.59766 15.9539C6.59766 15.4099 6.64648 14.8652 6.73926 14.3323C6.28198 13.5098 6.03857 12.5791 6.03857 11.6321C6.03857 10.1445 6.61816 8.74585 7.66968 7.69409C8.72168 6.64185 10.1204 6.0625 11.6079 6.0625C12.519 6.0625 13.4194 6.28979 14.2197 6.71533C14.2212 6.71509 14.2229 6.71509 14.2241 6.7146C14.8076 6.60278 15.407 6.54639 16.0056 6.54639C17.2754 6.54639 18.5076 6.79517 19.667 7.28564C20.7869 7.75952 21.7937 8.43774 22.657 9.30151C23.5215 10.1655 24.1995 11.1716 24.6733 12.292C25.1646 13.4519 25.4131 14.6838 25.4131 15.9539C25.4131 16.5264 25.3591 17.0994 25.2563 17.6592C25.7168 18.4849 25.9617 19.4187 25.9617 20.3689C25.9614 21.8564 25.3826 23.2554 24.3303 24.3066Z" fill="#F2C94C"/>
</svg>
