<svg xmlns="http://www.w3.org/2000/svg" viewBox="0 0 976.13 976.05"><defs><style>.cls-1{fill:red;}</style></defs><title>telegram_1</title><g id="Слой_2" data-name="Слой 2"><g id="Слой_1-2" data-name="Слой 1"><g id="_0082c8ff" data-name="#0082c8ff"><path class="cls-1" d="M468.44.46a436.78,436.78,0,0,1,83.2,4.2c21.9,3.1,43.4,8.6,64.9,13.7a427.82,427.82,0,0,1,122.8,51.4c13.5,8.2,26.4,17.5,39.2,26.8a431.89,431.89,0,0,1,91.6,88.5c20,26.2,39,53.5,53.7,83.1a432.88,432.88,0,0,1,35.1,96.8c5.7,23.8,11.5,47.7,14.2,72.1a431.3,431.3,0,0,1-.7,107.1c-2.9,23.8-8.8,47-14.3,70.2a429.22,429.22,0,0,1-71.5,154.3c-12.4,17.4-25.2,34.5-39.8,50.1a426.34,426.34,0,0,1-46.8,44.3c-13.4,10.8-27.4,20.7-41.4,30.7a430.38,430.38,0,0,1-112.3,55.4c-20.6,6.9-42,11.2-63.1,16.3a433,433,0,0,1-187.2.7c-27.3-6.3-54.8-12.2-81.1-22.1a429.2,429.2,0,0,1-95.1-48.7c-17.7-12.4-35.5-24.9-51.9-39.1a429.84,429.84,0,0,1-68.3-73.7c-9.9-13.5-19.9-27.1-28.6-41.4a429.55,429.55,0,0,1-53.1-127c-4.5-19.5-9.6-38.8-12.6-58.6a431.26,431.26,0,0,1,1.6-144.7c2.8-15.7,6.8-31.1,10.4-46.6A424,424,0,0,1,63.14,248c10.3-18.2,22.3-35.4,34.8-52.2A432.6,432.6,0,0,1,193,99.86c23-17.3,46.9-33.4,72.6-46.4A428.27,428.27,0,0,1,329,27.06c19.8-6.5,40.1-11.1,60.4-15.7a436.73,436.73,0,0,1,79-10.9m-1,60a428.09,428.09,0,0,0-303.9,706.9c10.4,11.6,20.7,23.3,32.4,33.6,67.4,63.4,156,103.7,248,112.8a428,428,0,0,0,369.2-704c-11.1-12.8-22.6-25.4-35.3-36.7a429.27,429.27,0,0,0-92.2-64.8C618.94,73.26,542.74,56.76,467.44,60.46Z"/></g><g id="_ffffffff" data-name="#ffffffff"><path class="cls-1" d="M666.44,321.16c8-1.1,16.6-1.3,24.1,2.3,7.2,3.5,11.2,11.7,10.6,19.4-1.6,26.5-5.5,52.7-9.3,79-12.5,88.9-28.4,177.3-43.2,265.8-1.1,7-2.5,14.2-6.6,20.2-8.8,13.5-26.6,20.8-42.3,16.5-6.1-1.5-11.1-5.4-16.2-8.8-50.1-33.9-100.4-67.4-150-102-7.6-5.4-10.6-15.8-8.5-24.7,3-12.8,11.8-23.1,21.5-31.5,41-40.1,85.7-76.2,124.8-118.2a15.86,15.86,0,0,0,4.9-13c-.8-3.5-5.2-2.7-7.7-1.9-9.1,3.1-17.2,8.7-25.2,13.9-54.9,37.6-108.3,77.5-165.5,111.6-8.8,5.2-17.5,11-27.6,13.5-15.9,4-32.8,2.1-48.5-1.9-11.7-2.9-23.1-6.7-34.5-10.3-8.1-2.8-15.9-6.2-23.8-9.2-8.3-3.4-16.7-6.8-24.1-11.9-3.7-2.7-7.9-6.7-7-11.7,1.1-4.5,5-7.8,8.9-10.1,37.2-20.3,75.9-37.4,114.6-54.5,37.6-16.8,75.6-32.6,113.6-48.4,58.7-24.4,117.5-48.3,176.8-71.1C639.24,329.16,652.24,323,666.44,321.16Z"/></g></g></g></svg>