<svg xmlns="http://www.w3.org/2000/svg" viewBox="0 0 889.47 955.39"><defs><style>.cls-1{fill:red;}</style></defs><title>viber</title><g id="Слой_2" data-name="Слой 2"><g id="Слой_1-2" data-name="Слой 1"><g id="_ffffffff" data-name="#ffffffff"><path class="cls-1" d="M384.7,1.32C418.4-.78,452.1,0,485.8,1c45.8,1.3,91.6,6.3,136.4,16.1,41.8,9.2,82.9,23,120.6,43.5,27.7,14.8,52.9,34.9,72.1,59.9,25.9,33.4,42.4,73.1,53.7,113.5,18.9,70.4,22.8,144,20.1,216.6-1.3,34.4-4.3,68.7-8.3,102.9-5.8,48.4-19.1,96.5-44.1,138.7a253.24,253.24,0,0,1-60.5,69.5c-18.5,14.8-39.4,26.6-61.1,35.9-24.9,10.4-51.1,16.8-77.1,23.7-65.3,15.3-132.7,21.2-199.7,20.7-22.1-.3-44.2-1.2-66.3-3.1q-32.7,38.1-66,75.6c-8.3,9-15.9,18.8-25,27-7.6,6.7-16.5,12.8-26.8,13.7-11.9,1.2-24.8-4-30.8-14.7-8.1-14.2-8.4-31-8.2-46.8-.2-27,.7-54,.4-81,.1-1.8-1.6-2.9-3.1-3.2-36.7-10.8-71.8-28.2-101.3-52.8a259.66,259.66,0,0,1-60.1-73c-22.7-40.3-35.6-85.4-42.6-130.8-1.8-12-3.5-24.1-4.3-36.2-1-14.7-2.6-29.3-2.8-44-.2-12-.5-24-1-36,.4-50.4,1.4-100.9,9.3-150.7,5.7-36.9,15.1-73.3,30.4-107.4,12.3-27.3,28.5-53,49-75,8.5-9.3,18.3-17.2,28.4-24.6,35.9-26,77.6-42.7,120.1-54.7C285.3,11,335,4.12,384.7,1.32m-88,78.5c-38.8,8.1-77.2,20.2-111.7,40-18.2,10.8-35.7,23.4-49.3,39.7-21.9,25.7-37.4,56.5-47.3,88.7-13.7,44.1-18.4,90.4-19.9,136.4-1.1,58.8-3.1,118.3,8.8,176.2,6.8,33.8,18.4,67,37.1,96.1A207.28,207.28,0,0,0,193.3,729c15.2,8.1,31.5,13.9,48,18.9.6,12.2.1,24.5.2,36.7.2,40.3-1.1,80.7-.4,121,.1,4.9-.3,10.1,2.2,14.5a7.33,7.33,0,0,0,6.6,4.4c4.1,0,7.7-2.6,10.6-5.3,4.1-3.9,7.9-8.2,11.6-12.3,37.1-41.7,72.2-85.2,108-128.1,2.2-2.5,4-5.6,6.8-7.5,4.2-.2,8.4.3,12.6.5,79.6,3.4,160.1-3.4,237.1-24.3,14.3-3.6,28.6-7.2,42.3-12.7,27.7-10.9,53.3-27.5,73.5-49.5,23-24.6,38.8-55.1,49-87,11-34.3,14.7-70.4,17.7-106.1a907.66,907.66,0,0,0,2.8-116.6c-2.5-48.7-8.9-97.7-25.2-143.8-10.9-30.6-26.1-60.5-49.3-83.6-12.3-12.6-27.3-22.1-42.8-30.3-32.3-16.6-67.1-27.8-102.5-35.5-46-9.9-93.2-14-140.2-14.4C406.6,65.72,350.9,68.82,296.7,79.82Z"/><path class="cls-1" d="M436.1,171c12.2-.7,24.5.6,36.6,2,36.8,4.8,72.8,17.3,103.7,37.9,30.3,19.9,55.2,47.6,72.8,79.2,23,41.5,33.6,89.3,34.2,136.5-.1,3.7.5,7.7-1.7,11-4,6.2-13.8,7.4-19.1,2.2-3.4-3.1-3.5-7.9-3.6-12.1-.5-41.9-9.2-84.2-28.8-121.4a200,200,0,0,0-71-77c-34.7-21.8-75.6-32.9-116.4-33.6-4.3-.2-9.4.1-12.7-3.3C423.5,186,426.5,172.22,436.1,171Z"/><path class="cls-1" d="M272.1,199c11.7-2.9,24.4,2.2,31.9,11.3,17.5,21.5,35.1,42.9,49.2,66.8,5.5,9.6,12.3,18.6,15.5,29.3,3.5,13,.9,28.4-9,38-7.7,7-16.2,13.1-24.1,19.9-7.5,6.3-10.3,16.8-9,26.2,1.1,5.8,3.5,11.2,5.6,16.6,13.2,33.9,33.2,65.3,59.6,90.4a202.9,202.9,0,0,0,84.4,48.3c10.3,2.7,22.2-.5,29-8.8,6.6-8.1,12.6-16.7,19.5-24.5,7.7-8.5,19.9-11.6,31.1-10.3,7.6.7,14.6,4.4,21,8.3,25.4,15.6,50.2,32.6,72.5,52.5,6.4,6,13.9,11.6,16.7,20.3,4.5,11.9.3,25-5.9,35.4-9.4,15.4-20.7,29.8-34.5,41.6-12,10-26.7,18.3-42.8,18.3-10.7.5-20.4-4.4-30.2-7.9-36.6-14.3-71.1-33.2-104.6-53.4-30.9-18.7-60.6-39.4-87.4-63.6-50.9-45.7-90.7-102.6-121.7-163.3-15-28.5-29.3-57.6-39.9-88.1a55.71,55.71,0,0,1,2.5-41.1c8.9-19.5,24.6-34.8,41.7-47.3C252,207.72,261.3,201.32,272.1,199Z"/><path class="cls-1" d="M455.1,233.92c4.4-1.1,9.1-.1,13.6.2,35.6,3.8,71,16.6,98.2,40.4,20.9,17.9,36.4,41.9,45,68a172.52,172.52,0,0,1,8.7,66.1c-.5,8.9-12.7,12.5-19.1,7.3-4.7-3.1-4.9-9.3-4.8-14.3.4-35.3-10.9-71.6-35-98-23.8-25.9-57.9-40.5-92.5-44.5-5.6-.9-11.7-.4-16.8-3.1C444.5,251,446.1,236.82,455.1,233.92Z"/><path class="cls-1" d="M473.1,298.82c4.3-1.3,8.9-.4,13.3,0,18.5,2.2,37.2,9.1,50.5,22.7,16.6,17.1,23.4,41.7,23.4,65.1.2,5.5-4.6,9.9-9.7,10.8-5.7,1.3-12.3-2-13.7-7.9s-1-12-2.2-17.9c-2.5-14.7-9.2-29.6-21.9-38.1-11.3-8-25.4-9.6-38.8-11.2C462.9,320.32,462.5,301.92,473.1,298.82Z"/></g></g></g></svg>