<svg xmlns="http://www.w3.org/2000/svg" viewBox="0 0 953.9 953.97"><defs><style>.cls-1{fill:red;}</style></defs><title>Whatsapp</title><g id="Слой_2" data-name="Слой 2"><g id="Слой_1-2" data-name="Слой 1"><g id="_ffffffff" data-name="#ffffffff"><path class="cls-1" d="M375.3,12.73c61.7-14.9,126.4-16.4,189-6.2a453.4,453.4,0,0,1,116.6,35.6,461.8,461.8,0,0,1,96.2,59.8,481.46,481.46,0,0,1,77.7,77.3,440.79,440.79,0,0,1,57.4,94.6,495,495,0,0,1,36.3,123.1c4,28.2,6.4,56.8,5,85.3-2.1,49.9-11.4,99.7-29.1,146.4-26.7,70.6-70.7,134.7-127.5,184.4a485.67,485.67,0,0,1-95,65A460.72,460.72,0,0,1,561,924.53c-61.3,10.1-124.6,7.6-185.1-6.3a434,434,0,0,1-105.3-38.8c-3.8-1.9-7.5-4.4-11.9-4.9-4-.5-7.9.6-11.6,1.9q-115.35,36.75-230.7,73.1c-5.5,1.3-10.5,4.8-16.3,4.4a12.8,12.8,0,0,1,1-6.7c26.7-78.2,52.8-156.7,79.8-235,1.9-4.5.7-9.5-1.8-13.4a445.74,445.74,0,0,1-46.6-110.2c-13.1-48.2-19-98.6-16.3-148.5A466.41,466.41,0,0,1,96,205.33c40.6-59,94.4-109,156.9-144.1a477.33,477.33,0,0,1,122.4-48.5m71.6,67.5c-18.4,1.9-36.9,4.3-54.8,9.4-50,13.1-98.2,34.3-140,64.8a369.68,369.68,0,0,0-72.7,70.3c-22,28-40,59-54.4,91.5a359.59,359.59,0,0,0-30,121.9,396.91,396.91,0,0,0,16.5,140.4,376.92,376.92,0,0,0,51.6,105.4c2.3,3.3,4.4,7,4.3,11.2-.2,4.8-2.4,9.2-3.8,13.8-7.9,23.2-15.8,46.3-23.6,69.5-6.1,17.3-11.4,34.8-17.8,52-.6,1.4,0,2.8.2,4.2,3.4.9,6.4-1.4,9.6-2.3,36.2-11.5,72.4-22.8,108.5-34.7,7.2-2.2,14.1-5.1,21.5-6.7,7.1-1.5,14.3,1.1,20.3,4.8,40.9,24.4,85.8,42.4,132.7,51,66.7,12.5,136.2,5.3,200.1-16.5a373.22,373.22,0,0,0,137.9-84c38.2-36.6,69.8-80.5,90.9-129.1,25.1-58,34.7-122.2,29.6-185.1-5.9-72.1-33.7-141.8-77.1-199.5-41-54.3-96.8-96.9-159.2-123.8a379.7,379.7,0,0,0-133.3-29.5C484.9,78.73,465.8,78.23,446.9,80.23Z"/><path class="cls-1" d="M321.3,237.73c9.6-1.6,19,2,28.6,1.2,4.7-.3,9.7-.1,13.9,2.2,5.9,3,9.8,8.8,12.1,14.8,11.2,29.2,22.1,58.5,33.2,87.8,2,6,5.4,11.9,4.9,18.4-.3,5.3-3.1,9.9-5.6,14.4-6.5,11.1-15.3,20.6-24.3,29.7-4.2,4.5-9.1,8.5-11.9,14.1-2.4,5,.2,10.4,2.6,14.8,16.3,29.8,36.3,57.7,60.5,81.5a298.91,298.91,0,0,0,76.9,55.1c6.2,3.2,12.8,5.6,18.7,9.3,4.2,2.4,9,4.5,14,4.3a17.89,17.89,0,0,0,11.6-5.5c14.1-14,27-29.1,39.5-44.5,3.2-3.7,6.5-7.8,11.2-9.5,5.2-1.7,10.5.6,15.3,2.6,32,14.6,62.6,32,93.6,48.5,4,2.1,8.1,4.6,10.3,8.7,2.6,4.8,2.5,10.4,2.2,15.6-1.3,17.4-6.5,34.7-16.5,49.1-9.4,13.6-22.6,24.3-37.3,31.7-15.1,7.6-31.5,12.3-48.2,14.9a100,100,0,0,1-34.5-.7c-10.1-1.9-19.8-5.5-29.5-8.6-37.6-12.3-74.7-27-108.6-47.5a405.41,405.41,0,0,1-74.5-58.5c-25.9-25.5-48.4-54.2-69.2-83.8a620,620,0,0,1-34.1-54.9,196.32,196.32,0,0,1-17.7-41.4c-4.3-14.4-7.7-29.2-8.4-44.2-.5-28.5,7.4-57.5,23.9-80.9a145.59,145.59,0,0,1,24.8-27.2C305.1,243.33,312.8,239,321.3,237.73Z"/></g></g></g></svg>