<svg xmlns="http://www.w3.org/2000/svg" width="611.994" height="611.994"><path d="M248.172 423.918l-89.545-89.534c-5.637-5.637-5.637-14.778 0-20.416 5.643-5.644 14.78-5.644 20.417 0l69.128 69.122 184.796-184.802c5.644-5.643 14.78-5.643 20.417 0 5.644 5.637 5.644 14.78 0 20.417L248.172 423.918z"/><path d="M306.031 611.994v-14.438l-.022 14.438C137.286 611.994.012 474.726 0 306.003 0 137.274 137.274 0 305.997 0c168.729 0 305.997 137.274 305.997 305.997.006 168.729-137.251 305.997-305.963 305.997zm-.034-583.116c-152.805 0-277.119 124.314-277.119 277.119.012 152.799 124.331 277.113 277.131 277.113h.022c152.788 0 277.091-124.314 277.091-277.113 0-152.805-124.32-277.119-277.125-277.119z"/></svg>