<svg xmlns="http://www.w3.org/2000/svg" width="100" height="100" viewBox="-256 379.9 100 100"><path d="M-202.9 390.4c1 .2 2 .6 2 1.2v9.1c0 .6-.8 1.1-1.8 1.1h-.7v4.5h23.2c-2.9-10.5-12.1-18.3-23.2-19.4v3.6h.4v-.1zm-5.4 11.4h-.6c-1 0-1.8-.5-1.8-1.1v-9.1c0-.6.8-1.1 1.8-1.1h.6v-3.6c-11.1 1-20.3 8.9-23.2 19.4h23.2v-4.5zm-24.1 9.5c-.1.7-.1 1.5-.1 2.2v32.3c0 14.7 12 26.7 26.7 26.7s26.7-12 26.7-26.7v-32.3c0-.7 0-1.5-.1-2.2h-53.2z" fill="none"/><path d="M-205.8 381.8c-17.5 0-31.7 14.2-31.7 31.7v32.3c0 17.5 14.2 31.7 31.7 31.7s31.7-14.2 31.7-31.7v-32.3c0-17.5-14.2-31.7-31.7-31.7zm2.5 5.1c11.1 1 20.3 8.9 23.2 19.4h-23.2v-4.5h.7c1 0 1.8-.5 1.8-1.1v-9.1c0-.6-1-1.1-2-1.2v.2h-.4v-3.7zm-4.2 7.6c0-.2.3-.4.6-.4h2.2v-.1c.4.1.7.2.7.4v3.3c0 .2-.3.4-.6.4h-2.3c-.4 0-.6-.2-.6-.4v-3.2zm-.8-7.6v3.6h-.6c-1 0-1.8.5-1.8 1.1v9.1c0 .6.8 1.1 1.8 1.1h.6v4.5h-23.2c3-10.5 12.1-18.3 23.2-19.4zm29.2 58.9c0 14.7-12 26.7-26.7 26.7s-26.7-12-26.7-26.7v-32.3c0-.7 0-1.5.1-2.2h53.2c.1.7.1 1.5.1 2.2v32.3z"/></svg>